<?xml version="1.0" encoding="utf-8"?><svg version="1.1" id="Layer_1" xmlns="http://www.w3.org/2000/svg" xmlns:xlink="http://www.w3.org/1999/xlink" x="0px" y="0px" viewBox="0 0 122.88 119.45" style="enable-background:new 0 0 122.88 119.45" xml:space="preserve"><style type="text/css">.st0{fill-rule:evenodd;clip-rule:evenodd;}</style><g><path class="st0" d="M11.9,40.47h99.81v74.14H11.9V40.47L11.9,40.47z M23.89,95.26h15.17v11.4H23.89V95.26L23.89,95.26z M44.12,64.1h15.17v11.4H44.12V64.1L44.12,64.1z M23.89,64.1h15.17v11.4H23.89V64.1L23.89,64.1z M84.59,79.68h15.17v11.4H84.59 V79.68L84.59,79.68z M64.35,79.68h15.17v11.4H64.35V79.68L64.35,79.68z M44.12,79.68h15.17v11.4H44.12V79.68L44.12,79.68z M23.89,79.68h15.17v11.4H23.89V79.68L23.89,79.68z M84.59,95.26h15.17v11.4H84.59V95.26L84.59,95.26z M64.35,95.26h15.17v11.4 H64.35V95.26L64.35,95.26z M44.12,95.26h15.17v11.4H44.12V95.26L44.12,95.26z M22,55.4c26.64,0,53.27,0,79.91,0 c0.98,0,1.78,0.8,1.78,1.78v51.68c0,0.98-0.8,1.78-1.78,1.78H22c-0.98,0-1.78-0.8-1.78-1.78V60.08C20.21,57.33,20.44,55.57,22,55.4 L22,55.4z M7.06,42.79H2.42H0v-2.42V28.44v-1.56l1.44-0.64l57.68-25.8L60.1,0l0.97,0.43l60.36,26.77l1.45,0.64v1.57v10.95v2.42 h-2.42h-3.91v74.24v2.42h-2.42H9.48H7.06l0-2.42V42.79L7.06,42.79z M61.18,14.46l13.06,17.02h-25.6L61.18,14.46L61.18,14.46z"/></g></svg>